<svg width="176" height="176" viewBox="0 0 176 176" fill="none" xmlns="http://www.w3.org/2000/svg">
<circle cx="87.5793" cy="87.9404" r="87.5793" fill="#000"/>
<path d="M117.07 53.2131C113.395 53.2131 110.639 55.9695 110.639 59.6447C110.639 63.3199 113.395 66.0763 117.07 66.0763C120.745 66.0763 123.502 63.3199 123.502 59.6447C123.502 55.9695 120.745 53.2131 117.07 53.2131Z" fill="white"/>
<path d="M88.128 61.4827C72.9678 61.4827 61.0234 73.8865 61.0234 88.5873C61.0234 103.288 73.4272 115.692 88.128 115.692C102.829 115.692 115.233 103.288 115.233 88.5873C115.233 73.8865 103.288 61.4827 88.128 61.4827ZM88.128 106.044C78.4806 106.044 70.6708 98.2347 70.6708 88.5873C70.6708 78.9399 78.4806 71.1301 88.128 71.1301C97.7755 71.1301 105.585 78.9399 105.585 88.5873C105.585 98.2347 97.7755 106.044 88.128 106.044Z" fill="white"/>
<path d="M110.179 33H66.5362C47.7008 33 33 47.7008 33 66.0768V109.72C33 128.096 47.7008 142.797 66.0768 142.797H109.72C128.096 142.797 142.797 128.096 142.797 109.72V66.0768C143.256 47.7008 128.555 33 110.179 33ZM132.69 110.179C132.69 122.583 122.583 133.149 109.72 133.149H66.0768C53.673 133.149 43.1068 123.042 43.1068 110.179V66.5362C43.1068 54.1324 53.2136 43.5662 66.0768 43.5662H109.72C122.124 43.5662 132.69 53.673 132.69 66.5362V110.179Z" fill="white"/>
</svg>
