<svg width="175" height="176" viewBox="0 0 175 176" fill="black" xmlns="http://www.w3.org/2000/svg">
<ellipse cx="87.9229" cy="88" rx="87" ry="88" fill="#000"/>
<path d="M31.0095 112.344C31.2695 112.344 31.4896 112.133 31.527 111.837L32.9403 100.813L31.5312 89.5379C31.4892 89.2416 31.2695 89.0295 31.0095 89.0295C30.7428 89.0295 30.5156 89.2461 30.4803 89.5379L29.2451 100.813L30.4803 111.833C30.5156 112.129 30.7428 112.344 31.0095 112.344Z" fill="white"/>
<path d="M26.3496 108.151C26.605 108.151 26.812 107.955 26.8494 107.663L27.9448 100.812L26.8494 93.8337C26.8116 93.5505 26.605 93.3459 26.3496 93.3459C26.0829 93.3459 25.8763 93.5505 25.8385 93.8378L24.9229 100.813L25.8385 107.661C25.8763 107.951 26.0829 108.151 26.3496 108.151Z" fill="white"/>
<path d="M36.5826 87.4396C36.549 87.0812 36.2823 86.8196 35.9514 86.8196C35.6229 86.8196 35.3558 87.0812 35.3252 87.4396L34.1445 100.813L35.3252 113.698C35.3558 114.055 35.6229 114.313 35.9514 114.313C36.2823 114.313 36.549 114.055 36.5826 113.698L37.9182 100.813L36.5826 87.4396Z" fill="white"/>
<path d="M40.9468 114.832C41.334 114.832 41.6473 114.518 41.6851 114.108L42.9472 100.817L41.6851 87.0703C41.6473 86.6574 41.334 86.3474 40.9468 86.3474C40.5541 86.3474 40.2361 86.6578 40.2093 87.0724L39.0938 100.817L40.2093 114.108C40.2361 114.519 40.5541 114.832 40.9468 114.832Z" fill="white"/>
<path d="M45.9764 115.048C46.4275 115.048 46.7895 114.692 46.8269 114.217L46.8227 114.22L48.0113 100.817L46.8227 88.0629C46.7891 87.595 46.4275 87.2341 45.976 87.2341C45.5182 87.2341 45.1582 87.595 45.1309 88.0666L44.0801 100.818L45.1309 114.217C45.1586 114.692 45.5186 115.048 45.9764 115.048Z" fill="white"/>
<path d="M53.1186 100.82L52.0035 80.0826C51.9724 79.5568 51.5562 79.1377 51.0454 79.1377C50.5385 79.1377 50.1235 79.5564 50.0925 80.0826L49.1055 100.82L50.0925 114.22C50.1235 114.748 50.5389 115.161 51.0454 115.161C51.5566 115.161 51.9724 114.748 52.0035 114.22V114.223L53.1186 100.82Z" fill="white"/>
<path d="M56.1653 115.183C56.7277 115.183 57.1943 114.724 57.2208 114.138V114.147L58.2632 100.824L57.2208 75.3393C57.1943 74.7532 56.7277 74.2939 56.1653 74.2939C55.5899 74.2939 55.1275 74.7532 55.0964 75.3393L54.1787 100.824L55.1006 114.142C55.1275 114.724 55.5899 115.183 56.1653 115.183Z" fill="white"/>
<path d="M61.3135 72.0598C60.6801 72.0598 60.169 72.5715 60.1429 73.2167L59.2891 100.828L60.1429 114.007C60.1694 114.648 60.6801 115.157 61.3135 115.157C61.9451 115.157 62.4601 114.653 62.4823 114.004V114.011L63.4513 100.828L62.4823 73.2167C62.4601 72.5674 61.9447 72.0598 61.3135 72.0598Z" fill="white"/>
<path d="M66.5074 115.183C67.2029 115.183 67.7569 114.631 67.783 113.92V113.928L68.6788 100.828L67.783 72.2895C67.7565 71.5811 67.2029 71.0264 66.5074 71.0264C65.8077 71.0264 65.2453 71.5811 65.2344 72.2895L64.4297 100.828L65.2344 113.928C65.2453 114.631 65.8077 115.183 66.5074 115.183Z" fill="white"/>
<path d="M71.7436 115.17C72.4941 115.17 73.1031 114.565 73.1258 113.799V113.811L73.9503 100.83L73.1258 73.0175C73.1031 72.2512 72.4941 71.6489 71.7436 71.6489C70.9876 71.6489 70.3786 72.2507 70.3563 73.0175L69.6318 100.83L70.361 113.804C70.3786 114.565 70.9876 115.17 71.7436 115.17Z" fill="white"/>
<path d="M79.2539 100.83L78.5075 74.0314C78.4895 73.2048 77.8317 72.5554 77.0161 72.5554C76.1984 72.5554 75.5402 73.2048 75.523 74.0368L74.8535 100.83L75.523 113.725C75.5402 114.546 76.1979 115.195 77.0161 115.195C77.8313 115.195 78.4895 114.546 78.5075 113.714V113.725L79.2539 100.83Z" fill="white"/>
<path d="M82.329 115.219C83.1959 115.219 83.9137 114.509 83.9271 113.637V113.644L84.6046 100.837L83.9271 68.9473C83.9141 68.0715 83.1963 67.363 82.329 67.363C81.4626 67.363 80.7469 68.0748 80.7292 68.9519L80.127 100.824L80.7292 113.644C80.7469 114.509 81.4626 115.219 82.329 115.219Z" fill="white"/>
<path d="M87.6251 64.363C86.6889 64.363 85.9295 65.1273 85.914 66.0589L85.2139 100.841L85.9182 113.459C85.9295 114.378 86.6893 115.14 87.6251 115.14C88.547 115.14 89.3206 114.378 89.3248 113.443V113.459L90.0892 100.841L89.3248 66.0589C89.3206 65.124 88.547 64.363 87.6251 64.363Z" fill="white"/>
<path d="M92.4672 115.231C92.505 115.235 135.149 115.254 135.423 115.254C143.984 115.254 150.922 108.343 150.922 99.8135C150.922 91.2889 143.984 84.3759 135.423 84.3759C133.298 84.3759 131.274 84.8033 129.427 85.5774C128.2 71.6601 116.485 60.7456 102.194 60.7456C98.7 60.7456 95.2934 61.4326 92.2845 62.5928C91.1136 63.0433 90.8003 63.5079 90.791 64.4082V113.404C90.8045 114.351 91.5378 115.137 92.4672 115.231Z" fill="white"/>
</svg>
